<?xml version="1.0" encoding="UTF-8"?>
<!DOCTYPE svg PUBLIC "-//W3C//DTD SVG 1.0//EN" "http://www.w3.org/TR/2001/REC-SVG-20010904/DTD/svg10.dtd">
<!-- Creator: CorelDRAW 2019 (64-Bit) -->
<svg xmlns="http://www.w3.org/2000/svg" xml:space="preserve" width="151px" height="56px" version="1.0" style="shape-rendering:geometricPrecision; text-rendering:geometricPrecision; image-rendering:optimizeQuality; fill-rule:evenodd; clip-rule:evenodd"
viewBox="0 0 128.47 47.63"
 xmlns:xlink="http://www.w3.org/1999/xlink"
 xmlns:xodm="http://www.corel.com/coreldraw/odm/2003">
 <defs>
  <style type="text/css">
   <![CDATA[
    .str0 {stroke:#5B5B5B;stroke-width:0.06;stroke-miterlimit:22.9256}
    .fil0 {fill:#25292F}
   ]]>
  </style>
 </defs>
 <g id="Слой_x0020_1">
  <metadata id="CorelCorpID_0Corel-Layer"/>
  <path class="fil0 str0" d="M71.41 2.82c8.59,-6.17 19.2,-1.76 23.7,9.84 4.49,11.59 1.18,25.99 -7.41,32.15 -8.59,6.16 -19.2,1.76 -23.69,-9.84 -4.5,-11.6 -1.18,-25.99 7.4,-32.15zm4.61 29.51c-1.85,0.55 -3.43,0.83 -4.75,0.83 -2.25,0 -4.07,-0.75 -5.48,-2.23 -1.41,-1.49 -2.12,-3.41 -2.12,-5.78 0,-2.29 0.62,-4.18 1.87,-5.65 1.25,-1.47 2.84,-2.21 4.78,-2.21 1.84,0 3.26,0.66 4.26,1.96 1.01,1.31 1.51,3.16 1.51,5.56l-0.02 0.84 -9.59 0c0.4,3.63 2.17,5.44 5.31,5.44 1.15,0 2.55,-0.32 4.23,-0.97l0 2.21zm-9.4 -8.74l6.7 0c0,-2.82 -1.05,-4.24 -3.16,-4.24 -2.11,0 -3.29,1.42 -3.54,4.24zm15.45 -12.4c4.5,-4.11 10.49,-2.24 13.38,4.18 2.89,6.42 1.58,14.96 -2.93,19.07 -4.5,4.11 -10.5,2.25 -13.39,-4.17 -2.88,-6.42 -1.57,-14.96 2.94,-19.08zm41.44 18.19l0 -3.9 -0.89 -0.03c-1.52,0 -2.76,0.29 -3.7,0.85 -0.93,0.57 -1.4,1.32 -1.4,2.25 0,0.65 0.23,1.21 0.7,1.66 0.47,0.45 1.03,0.68 1.71,0.68 1.14,0 2.33,-0.5 3.58,-1.51zm0.4 1.5c-1.65,1.52 -3.24,2.28 -4.77,2.28 -1.25,0 -2.3,-0.4 -3.12,-1.18 -0.83,-0.79 -1.25,-1.78 -1.25,-2.98 0,-1.66 0.7,-2.93 2.09,-3.82 1.4,-0.89 3.4,-1.33 6,-1.33l0.65 0 0 -1.83c0,-1.76 -0.92,-2.64 -2.76,-2.64 -1.42,0 -2.98,0.45 -4.66,1.35l0 -2.26c1.85,-0.77 3.6,-1.15 5.23,-1.15 1.69,0 2.93,0.38 3.73,1.15 0.8,0.77 1.2,1.95 1.2,3.55l0 6.86c0,1.57 0.49,2.36 1.45,2.36 0.12,0 0.3,-0.02 0.53,-0.06l0.2 1.53c-0.62,0.3 -1.31,0.45 -2.07,0.45 -1.28,0 -2.1,-0.76 -2.45,-2.28zm-23.09 -1.69c1.42,1.27 2.77,1.9 4.05,1.9 1.26,0 2.24,-0.53 2.93,-1.58 0.69,-1.06 1.04,-2.54 1.04,-4.46 0,-3.55 -1.18,-5.32 -3.53,-5.32 -1.53,0 -3.03,0.83 -4.49,2.49l0 6.97zm-2.75 9.15l0 -20.7 2.75 0 0 2.86c1.12,-2.12 2.82,-3.18 5.08,-3.18 1.82,0 3.26,0.67 4.31,2 1.05,1.33 1.57,3.15 1.57,5.45 0,2.51 -0.59,4.54 -1.78,6.08 -1.19,1.54 -2.75,2.31 -4.69,2.31 -1.8,0 -3.3,-0.69 -4.49,-2.07l0 7.25 -2.75 0zm-16.77 -5.93l0 -2.92c2.33,1.09 4.26,1.63 5.76,1.63 1.15,0 2.08,-0.3 2.78,-0.91 0.7,-0.61 1.06,-1.41 1.06,-2.38 0,-0.81 -0.23,-1.5 -0.69,-2.07 -0.47,-0.57 -1.32,-1.2 -2.56,-1.9l-1.42 -0.83c-1.76,-1 -3.01,-1.95 -3.73,-2.84 -0.72,-0.89 -1.08,-1.92 -1.08,-3.1 0,-1.6 0.58,-2.92 1.73,-3.95 1.16,-1.03 2.63,-1.55 4.42,-1.55 1.6,0 3.27,0.27 5.05,0.81l0 2.69c-2.19,-0.86 -3.81,-1.29 -4.89,-1.29 -1.01,0 -1.85,0.27 -2.51,0.81 -0.67,0.54 -0.99,1.22 -0.99,2.04 0,0.69 0.24,1.3 0.72,1.83 0.49,0.53 1.38,1.16 2.66,1.9l1.48 0.84c1.79,1.01 3.04,1.97 3.75,2.88 0.71,0.9 1.06,1.99 1.06,3.26 0,1.8 -0.66,3.24 -1.98,4.33 -1.32,1.09 -3.08,1.64 -5.28,1.64 -1.39,0 -3.17,-0.31 -5.34,-0.92zm-81.27 0.4l0 -20.7 2.95 0 0 8.73 9.82 0 0 -8.73 2.95 0 0 20.7 -2.95 0 0 -9.76 -9.82 0 0 9.76 -2.95 0zm27.17 0.35c-2.23,0 -3.99,-0.72 -5.29,-2.14 -1.3,-1.42 -1.95,-3.35 -1.95,-5.79 0,-2.43 0.65,-4.36 1.95,-5.78 1.3,-1.42 3.06,-2.13 5.29,-2.13 2.23,0 4,0.71 5.29,2.13 1.31,1.42 1.95,3.35 1.95,5.78 0,2.44 -0.64,4.37 -1.95,5.79 -1.29,1.42 -3.06,2.14 -5.29,2.14zm0 -2.07c1.36,0 2.42,-0.51 3.17,-1.53 0.75,-1.02 1.13,-2.47 1.13,-4.33 0,-1.86 -0.38,-3.3 -1.13,-4.32 -0.75,-1.02 -1.81,-1.53 -3.17,-1.53 -1.37,0 -2.43,0.51 -3.17,1.53 -0.75,1.02 -1.12,2.46 -1.12,4.32 0,1.86 0.37,3.31 1.12,4.33 0.74,1.02 1.8,1.53 3.17,1.53zm11.55 1.72l0 -15.17 2.75 0 0 2.86c1.34,-2.12 3.06,-3.18 5.16,-3.18 2.03,0 3.41,1.06 4.14,3.18 1.31,-2.14 3.01,-3.21 5.09,-3.21 1.33,0 2.37,0.39 3.11,1.18 0.74,0.79 1.11,1.89 1.11,3.31l0 11.03 -2.75 0 0 -10.58c0,-1.73 -0.69,-2.59 -2.06,-2.59 -1.43,0 -2.93,1.01 -4.5,3.03l0 10.14 -2.74 0 0 -10.59c0,-1.74 -0.7,-2.61 -2.1,-2.61 -1.39,0 -2.88,1.01 -4.46,3.04l0 10.16 -2.75 0z"/>
 </g>
</svg>
