<?xml version="1.0" encoding="UTF-8"?>
<!DOCTYPE svg PUBLIC "-//W3C//DTD SVG 1.0//EN" "http://www.w3.org/TR/2001/REC-SVG-20010904/DTD/svg10.dtd">
<!-- Creator: CorelDRAW 2019 (64-Bit) -->
<svg xmlns="http://www.w3.org/2000/svg" xml:space="preserve" width="151px" height="56px" version="1.0" style="shape-rendering:geometricPrecision; text-rendering:geometricPrecision; image-rendering:optimizeQuality; fill-rule:evenodd; clip-rule:evenodd"
viewBox="0 0 86.01 31.86"
 xmlns:xlink="http://www.w3.org/1999/xlink"
 xmlns:xodm="http://www.corel.com/coreldraw/odm/2003">
 <defs>
  <style type="text/css">
   <![CDATA[
    .fil0 {fill:#FEFEFE}
   ]]>
  </style>
 </defs>
 <g id="Слой_x0020_1">
  <metadata id="CorelCorpID_0Corel-Layer"/>
  <path class="fil0" d="M47.82 1.87c5.75,-4.13 12.86,-1.18 15.87,6.59 3.01,7.77 0.79,17.41 -4.96,21.54 -5.75,4.12 -12.86,1.17 -15.87,-6.6 -3.02,-7.76 -0.8,-17.41 4.96,-21.53zm3.08 19.76c-1.24,0.37 -2.29,0.56 -3.18,0.56 -1.5,0 -2.73,-0.5 -3.67,-1.49 -0.94,-1 -1.42,-2.29 -1.42,-3.87 0,-1.54 0.42,-2.8 1.25,-3.79 0.84,-0.98 1.91,-1.48 3.21,-1.48 1.23,0 2.18,0.44 2.85,1.32 0.67,0.87 1.01,2.11 1.01,3.72l-0.01 0.56 -6.43 0c0.27,2.43 1.46,3.65 3.56,3.65 0.77,0 1.71,-0.22 2.83,-0.65l0 1.47zm-6.29 -5.85l4.49 0c0,-1.89 -0.71,-2.84 -2.12,-2.84 -1.42,0 -2.21,0.95 -2.37,2.84zm10.34 -8.3c3.02,-2.76 7.04,-1.5 8.97,2.8 1.94,4.3 1.06,10.02 -1.96,12.77 -3.02,2.76 -7.04,1.5 -8.97,-2.8 -1.93,-4.3 -1.05,-10.02 1.96,-12.77zm27.76 12.18l0 -2.61 -0.59 -0.02c-1.02,0 -1.85,0.19 -2.47,0.57 -0.63,0.38 -0.94,0.88 -0.94,1.5 0,0.44 0.15,0.81 0.46,1.12 0.32,0.3 0.7,0.45 1.15,0.45 0.76,0 1.56,-0.33 2.39,-1.01zm0.28 1.01c-1.11,1.01 -2.18,1.52 -3.2,1.52 -0.84,0 -1.54,-0.26 -2.09,-0.79 -0.56,-0.53 -0.84,-1.19 -0.84,-1.99 0,-1.11 0.47,-1.97 1.4,-2.56 0.94,-0.6 2.28,-0.89 4.02,-0.89l0.43 0 0 -1.23c0,-1.18 -0.61,-1.77 -1.84,-1.77 -0.95,0 -2,0.3 -3.12,0.9l0 -1.51c1.24,-0.51 2.41,-0.77 3.5,-0.77 1.13,0 1.97,0.26 2.5,0.77 0.54,0.52 0.81,1.31 0.81,2.38l0 4.6c0,1.05 0.32,1.57 0.97,1.57 0.08,0 0.2,-0.01 0.35,-0.03l0.13 1.02c-0.42,0.2 -0.88,0.3 -1.38,0.3 -0.86,0 -1.41,-0.51 -1.64,-1.52zm-15.47 -1.13c0.95,0.84 1.85,1.27 2.71,1.27 0.85,0 1.5,-0.36 1.96,-1.06 0.47,-0.71 0.7,-1.7 0.7,-2.99 0,-2.38 -0.79,-3.57 -2.36,-3.57 -1.03,0 -2.04,0.56 -3.01,1.68l0 4.67zm-1.85 6.12l0 -13.87 1.85 0 0 1.92c0.75,-1.42 1.89,-2.13 3.4,-2.13 1.22,0 2.18,0.45 2.89,1.34 0.7,0.89 1.05,2.11 1.05,3.65 0,1.68 -0.4,3.04 -1.19,4.07 -0.8,1.04 -1.85,1.55 -3.15,1.55 -1.2,0 -2.2,-0.46 -3,-1.38l0 4.85 -1.85 0zm-11.23 -3.97l0 -1.96c1.56,0.73 2.85,1.1 3.86,1.1 0.77,0 1.39,-0.21 1.86,-0.62 0.47,-0.4 0.71,-0.94 0.71,-1.59 0,-0.54 -0.15,-1 -0.46,-1.39 -0.31,-0.38 -0.88,-0.8 -1.71,-1.27l-0.96 -0.55c-1.18,-0.68 -2.01,-1.31 -2.49,-1.91 -0.49,-0.59 -0.73,-1.28 -0.73,-2.07 0,-1.07 0.39,-1.96 1.16,-2.65 0.77,-0.69 1.76,-1.03 2.96,-1.03 1.07,0 2.19,0.18 3.38,0.53l0 1.81c-1.46,-0.58 -2.55,-0.87 -3.27,-0.87 -0.68,0 -1.24,0.19 -1.68,0.55 -0.45,0.36 -0.67,0.81 -0.67,1.36 0,0.46 0.16,0.87 0.49,1.23 0.32,0.35 0.92,0.78 1.78,1.27l0.99 0.56c1.2,0.68 2.04,1.32 2.51,1.93 0.48,0.61 0.71,1.34 0.71,2.19 0,1.2 -0.44,2.17 -1.33,2.9 -0.88,0.73 -2.06,1.09 -3.53,1.09 -0.94,0 -2.13,-0.2 -3.58,-0.61zm-54.44 0.27l0 -13.87 1.98 0 0 5.85 6.57 0 0 -5.85 1.98 0 0 13.87 -1.98 0 0 -6.54 -6.57 0 0 6.54 -1.98 0zm18.2 0.23c-1.49,0 -2.68,-0.48 -3.55,-1.43 -0.87,-0.95 -1.3,-2.25 -1.3,-3.88 0,-1.63 0.43,-2.92 1.3,-3.87 0.87,-0.95 2.06,-1.43 3.55,-1.43 1.49,0 2.68,0.48 3.55,1.43 0.87,0.95 1.3,2.24 1.3,3.87 0,1.63 -0.43,2.93 -1.3,3.88 -0.87,0.95 -2.06,1.43 -3.55,1.43zm0 -1.38c0.91,0 1.62,-0.34 2.12,-1.03 0.5,-0.68 0.76,-1.65 0.76,-2.9 0,-1.24 -0.26,-2.21 -0.76,-2.89 -0.5,-0.68 -1.21,-1.03 -2.12,-1.03 -0.92,0 -1.63,0.35 -2.13,1.03 -0.5,0.68 -0.75,1.65 -0.75,2.89 0,1.25 0.25,2.22 0.75,2.9 0.5,0.69 1.21,1.03 2.13,1.03zm7.74 1.15l0 -10.17 1.84 0 0 1.92c0.9,-1.42 2.05,-2.13 3.46,-2.13 1.36,0 2.28,0.71 2.77,2.13 0.87,-1.43 2.01,-2.15 3.41,-2.15 0.89,0 1.59,0.27 2.08,0.79 0.5,0.53 0.75,1.27 0.75,2.22l0 7.39 -1.85 0 0 -7.09c0,-1.16 -0.46,-1.73 -1.38,-1.73 -0.95,0 -1.96,0.67 -3.01,2.02l0 6.8 -1.84 0 0 -7.09c0,-1.17 -0.47,-1.75 -1.4,-1.75 -0.93,0 -1.93,0.67 -2.99,2.03l0 6.81 -1.84 0z"/>
 </g>
</svg>
